<svg xmlns="http://www.w3.org/2000/svg" viewBox="0 0 80.46 89.21"><defs><style>.cls-1{fill:#dae7ef;}.cls-2{fill:#bbd7ea;}.cls-3{fill:none;}.cls-4{fill:#b3ffff;}.cls-5{fill:#ffc429;}.cls-6{fill:#fbd490;}.cls-7{fill:#b0d9ea;}.cls-8{fill:#ff990f;}</style></defs><title>cocktail</title><g id="Layer_2" data-name="Layer 2"><g id="Layer_1-2" data-name="Layer 1"><ellipse class="cls-1" cx="44.55" cy="84.04" rx="18.94" ry="4.3"/><path class="cls-2" d="M44.55,89.21c-6.85,0-19.8-1.08-19.8-5.17s13-5.17,19.8-5.17S64.35,80,64.35,84,51.4,89.21,44.55,89.21Zm0-8.61c-11.7,0-18.08,2.27-18.08,3.44s6.38,3.44,18.08,3.44S62.63,85.21,62.63,84,56.25,80.6,44.55,80.6Z"/><line class="cls-3" x1="44.55" y1="57.59" x2="44.55" y2="83.42"/><path class="cls-2" d="M44.55,85.14a1.72,1.72,0,0,1-1.72-1.72V57.59a1.72,1.72,0,1,1,3.44,0V83.42A1.72,1.72,0,0,1,44.55,85.14Z"/><path class="cls-4" d="M11.84,16c0,2.5,4.9,4.43,12.47,5.6a12.83,12.83,0,1,0-6.16,6C14.43,22.35,11.84,18,11.84,16Z"/><path class="cls-1" d="M43.69,7.42a91.78,91.78,0,0,0-19.91,2,12.7,12.7,0,0,1,.53,12.16c-7.06-1.09-11.79-2.84-12.4-5.1,0,.09,0,.16,0,.25L12,17a8.83,8.83,0,0,0,.28.87l0,.07c.14.35.31.73.5,1.13l.12.25c.19.38.4.78.63,1.2l.05.09c.26.48.56,1,.87,1.49l.1.17c.31.51.64,1,1,1.58l0,0c.76,1.18,1.62,2.45,2.54,3.77h0c6.45,9.2,16.3,21.17,22,27.92a5.65,5.65,0,0,0,8.74-.1c8.51-10.65,26.69-34,26.69-39.44C75.55,11.75,61.29,7.42,43.69,7.42Z"/><path class="cls-2" d="M44.45,58.46a6.49,6.49,0,0,1-5-2.32c-5.42-6.44-15.48-18.65-22-28-.93-1.33-1.79-2.6-2.56-3.8-.38-.6-.72-1.13-1-1.64l-.1-.17c-.32-.53-.61-1-.89-1.52s-.5-.94-.7-1.33L12,19.44c-.2-.42-.38-.82-.53-1.18s-.26-.74-.34-1L11.1,17s0-.22,0-.25a.91.91,0,0,1,.69-1,.82.82,0,0,1,1,.57c.17.64,1.48,2.8,11.06,4.37a11.77,11.77,0,0,0,1-4.64A11.92,11.92,0,0,0,23,9.9a.86.86,0,0,1,.55-1.28,93.44,93.44,0,0,1,20.1-2.07c15.8,0,32.71,3.81,32.71,9.47S59.57,43.46,49.53,56a6.49,6.49,0,0,1-5,2.45ZM15.32,21.82c.31.5.63,1,1,1.56.79,1.22,1.64,2.48,2.56,3.79C25.35,36.44,35.38,48.6,40.78,55a4.93,4.93,0,0,0,3.73,1.71,4.77,4.77,0,0,0,3.68-1.8C64.78,34.19,74.68,19.64,74.68,16c0-3.08-12.36-7.75-31-7.75a93.43,93.43,0,0,0-18.6,1.78,13.55,13.55,0,0,1,0,11.95.85.85,0,0,1-.91.47,35.36,35.36,0,0,1-10-2.72l.19.34c.31.56.6,1,.9,1.56l-.64.61Z"/><path class="cls-5" d="M64.68,34.79c0,2-9.91,3.62-20.13,3.62s-21.18-1.62-21.18-3.62,11-3.26,21.18-3.26S64.68,32.79,64.68,34.79Z"/><path class="cls-5" d="M44.45,38.41c-8.81,0-18.14-1.21-20.56-2.82,5.64,7.37,12,15.07,16.13,20a5.65,5.65,0,0,0,8.74-.1C52.69,50.56,58.67,42.94,64,35.62,61.72,37.22,53.21,38.41,44.45,38.41Z"/><path class="cls-6" d="M63.36,21.58c1.75-.28,3.36-.59,4.78-.95L73.24,13a18.05,18.05,0,0,0-3.09-1.58Z"/><path class="cls-7" d="M63.36,21.58,43.51,51.22a1.72,1.72,0,0,0,2.86,1.92l21.77-32.5C66.72,21,65.11,21.31,63.36,21.58Z"/><path class="cls-1" d="M43.69,7.42a91.78,91.78,0,0,0-19.91,2,12.7,12.7,0,0,1,.53,12.16,130.82,130.82,0,0,0,19.38,1.29c17.59,0,31.85-2.61,31.85-6.89S61.29,7.42,43.69,7.42Z"/><path class="cls-2" d="M43.69,23.78a131.79,131.79,0,0,1-19.51-1.3.86.86,0,0,1-.64-1.23A11.84,11.84,0,0,0,23,9.9a.86.86,0,0,1,.55-1.28,93.44,93.44,0,0,1,20.1-2.07c15.8,0,32.71,3.81,32.71,9.47S58.78,23.78,43.69,23.78ZM25.55,20.94a133.7,133.7,0,0,0,18.14,1.11c19.4,0,31-3.06,31-6s-12.36-7.75-31-7.75a93.43,93.43,0,0,0-18.6,1.78,13.54,13.54,0,0,1,.46,10.88Z"/><path class="cls-5" d="M79.7.29a1.72,1.72,0,0,0-2.39.47L70,11.71a6.67,6.67,0,0,1,3.13,1.51L80.17,2.68A1.72,1.72,0,0,0,79.7.29Z"/><path class="cls-8" d="M60.07,32.68Z"/><path class="cls-8" d="M53.94,35.59,43.51,51.22a1.72,1.72,0,0,0,2.86,1.92l12-18C57,35.3,55.53,35.46,53.94,35.59Z"/><path class="cls-8" d="M56.3,32.13Z"/><path class="cls-5" d="M68.86,19.56,73.92,12a17.79,17.79,0,0,0-3.11-1.55L64,20.61A49.51,49.51,0,0,0,68.86,19.56Z"/></g></g></svg>