<svg xmlns="http://www.w3.org/2000/svg" viewBox="0 0 76.55 90.51"><defs><style>.cls-1{fill:#edeef0;}.cls-2{fill:#dcdee2;}.cls-3{fill:#444242;}.cls-4{fill:#3a3839;}.cls-5{fill:#262626;}.cls-6{fill:#b7b9c0;}.cls-7{fill:#ffc429;}.cls-8{fill:#ff990f;}</style></defs><title>dropper</title><g id="Layer_2" data-name="Layer 2"><g id="Layer_1-2" data-name="Layer 1"><path class="cls-1" d="M33.7,29,47.56,42.85,22.63,67.78,5.11,71.44,8.77,53.92Z"/><polygon class="cls-2" points="47.56 42.85 40.63 35.92 5.11 71.44 22.63 67.78 47.56 42.85"/><path class="cls-3" d="M33.38,29.31,59.83,2.87A9.8,9.8,0,1,1,73.68,16.72L47.24,43.17Z"/><path class="cls-4" d="M73.68,16.72a9.81,9.81,0,0,0,0-13.86L40.31,36.24l6.93,6.93Z"/><rect class="cls-4" x="38.9" y="24.77" width="6.15" height="19.59" transform="translate(-12.15 39.81) rotate(-45)"/><rect class="cls-5" x="42.37" y="33.14" width="6.15" height="9.8" transform="translate(-13.59 43.27) rotate(-45)"/><rect class="cls-2" x="34.55" y="29.12" width="6.15" height="19.59" transform="translate(-16.5 38.01) rotate(-45)"/><rect class="cls-6" x="38.02" y="37.48" width="6.15" height="9.8" transform="translate(-17.93 41.47) rotate(-45)"/><rect class="cls-3" x="36.57" y="23.82" width="6.46" height="25.86" transform="translate(-14.32 38.91) rotate(-45)"/><polygon class="cls-7" points="34.98 48.87 20.33 63.52 11.1 65.45 29.06 47.49 23.13 46.12 13.03 56.22 11.1 65.45 20.33 63.52 34.98 48.87"/><polygon class="cls-8" points="11.1 65.45 20.33 63.52 34.98 48.87 29.06 47.49 11.1 65.45"/><path class="cls-7" d="M5.11,75.73s5.11,5.67,5.11,9.67A5.11,5.11,0,1,1,0,85.4C0,81.39,5.11,75.73,5.11,75.73Z"/><path class="cls-8" d="M5.11,75.73s5.11,5.67,5.11,9.67a5.11,5.11,0,0,1-5.11,5.11Z"/><rect class="cls-4" x="41.14" y="34.85" width="6.46" height="12.93" transform="translate(-16.22 43.48) rotate(-45)"/></g></g></svg>