<svg height="511pt" viewBox="0 -3 511.99952 511" width="511pt" xmlns="http://www.w3.org/2000/svg"><path d="m256.339844 179.054688c-8.769532 0-15.878906-7.109376-15.878906-15.878907v-113.433593c0-8.769532 7.109374-15.878907 15.878906-15.878907 8.769531 0 15.878906 7.109375 15.878906 15.878907v113.433593c0 8.769531-7.109375 15.878907-15.878906 15.878907zm0 0" fill="#ffa31d"/><path d="m256.339844 33.863281v145.191407c8.769531 0 15.878906-7.109376 15.878906-15.878907v-113.433593c0-8.769532-7.109375-15.878907-15.878906-15.878907zm0 0" fill="#fc7e00"/><path d="m256.339844 504.589844c-8.769532 0-15.878906-7.109375-15.878906-15.878906v-113.433594c0-8.769532 7.109374-15.878906 15.878906-15.878906 8.769531 0 15.878906 7.109374 15.878906 15.878906v113.433594c0 8.769531-7.109375 15.878906-15.878906 15.878906zm0 0" fill="#ffa31d"/><path d="m256.339844 359.398438v145.191406c8.769531 0 15.878906-7.109375 15.878906-15.878906v-113.433594c0-8.769532-7.109375-15.878906-15.878906-15.878906zm0 0" fill="#fc7e00"/><path d="m200.40625 217.621094c-3.507812 0-7.035156-1.15625-9.972656-3.53125l-96.554688-78.042969c-6.820312-5.511719-7.878906-15.511719-2.367187-22.332031 5.511719-6.820313 15.507812-7.878906 22.328125-2.367188l96.554687 78.042969c6.824219 5.511719 7.882813 15.511719 2.371094 22.332031-3.140625 3.882813-7.730469 5.898438-12.359375 5.898438zm0 0" fill="#ffa31d"/><path d="m67.917969 303.246094c-7.246094 0-13.789063-4.988282-15.46875-12.347656-1.953125-8.550782 3.398437-17.0625 11.949219-19.015626l120.816406-27.574218c8.546875-1.953125 17.0625 3.394531 19.011718 11.945312 1.953126 8.550782-3.398437 17.0625-11.945312 19.015625l-120.816406 27.578125c-1.191406.269532-2.378906.398438-3.546875.398438zm0 0" fill="#ffa31d"/><path d="m173.476562 433.382812c-2.3125 0-4.65625-.503906-6.878906-1.574218-7.898437-3.804688-11.222656-13.296875-7.417968-21.195313l51.730468-107.417969c3.804688-7.898437 13.292969-11.222656 21.195313-7.417968 7.902343 3.808594 11.222656 13.296875 7.417969 21.199218l-51.726563 107.414063c-2.738281 5.679687-8.410156 8.992187-14.320313 8.992187zm0 0" fill="#ffa31d"/><g fill="#fc7e00"><path d="m341.058594 431.992188c-5.90625 0-11.582032-3.3125-14.316406-8.992188l-51.058594-106.023438c-3.808594-7.902343-.484375-17.390624 7.414062-21.199218 7.902344-3.804688 17.394532-.484375 21.199219 7.417968l51.058594 106.027344c3.804687 7.898438.484375 17.390625-7.417969 21.195313-2.222656 1.070312-4.566406 1.574219-6.878906 1.574219zm0 0"/><path d="m444.445312 300.125c-1.253906 0-2.527343-.152344-3.796874-.464844l-122.035157-29.949218c-8.519531-2.09375-13.726562-10.691407-11.636719-19.207032 2.089844-8.515625 10.6875-13.726562 19.207032-11.636718l122.035156 29.953124c8.515625 2.089844 13.726562 10.6875 11.636719 19.207032-1.78125 7.246094-8.269531 12.097656-15.410157 12.097656zm0 0"/><path d="m307.910156 215.140625c-4.667968 0-9.289062-2.050781-12.425781-5.980469-5.46875-6.855468-4.34375-16.847656 2.511719-22.316406l97.894531-78.066406c6.859375-5.46875 16.847656-4.34375 22.316406 2.515625 5.46875 6.855469 4.34375 16.847656-2.515625 22.3125l-97.890625 78.070312c-2.925781 2.332031-6.421875 3.464844-9.890625 3.464844zm0 0"/><path d="m318.101562 120.511719c-2.230468 0-4.496093-.472657-6.652343-1.472657-7.960938-3.679687-11.429688-13.117187-7.75-21.074218l40.804687-88.246094c3.683594-7.960938 13.117188-11.429688 21.078125-7.75 7.960938 3.683594 11.429688 13.117188 7.75 21.078125l-40.804687 88.246094c-2.683594 5.800781-8.425782 9.21875-14.425782 9.21875zm0 0"/></g><path d="m188.757812 124.230469c-5.820312 0-11.421874-3.210938-14.207031-8.769531l-43.554687-86.921876c-3.929688-7.839843-.757813-17.382812 7.082031-21.308593 7.84375-3.929688 17.382813-.757813 21.3125 7.082031l43.550781 86.921875c3.929688 7.839844.757813 17.382813-7.082031 21.3125-2.28125 1.140625-4.710937 1.683594-7.101563 1.683594zm0 0" fill="#ffa31d"/><path d="m111.011719 227.695312c-1.089844 0-2.195313-.113281-3.308594-.351562l-95.113281-20.144531c-8.578125-1.816407-14.058594-10.242188-12.242188-18.824219 1.820313-8.578125 10.242188-14.058594 18.824219-12.242188l95.113281 20.144532c8.578125 1.816406 14.0625 10.246094 12.246094 18.824218-1.585938 7.472657-8.179688 12.59375-15.519531 12.59375zm0 0" fill="#ffa31d"/><path d="m68.367188 414.789062c-4.582032 0-9.128907-1.972656-12.269532-5.785156-5.574218-6.769531-4.605468-16.777344 2.164063-22.351562l75.050781-61.800782c6.773438-5.574218 16.78125-4.605468 22.351562 2.164063 5.578126 6.769531 4.609376 16.777344-2.164062 22.351563l-75.050781 61.800781c-2.953125 2.433593-6.53125 3.621093-10.082031 3.621093zm0 0" fill="#ffa31d"/><path d="m453.464844 405.703125c-3.390625 0-6.804688-1.082031-9.691406-3.3125l-76.953126-59.417969c-6.941406-5.359375-8.226562-15.332031-2.867187-22.273437 5.363281-6.941407 15.332031-8.222657 22.273437-2.863281l76.953126 59.417968c6.941406 5.359375 8.222656 15.332032 2.863281 22.273438-3.128907 4.050781-7.828125 6.175781-12.578125 6.175781zm0 0" fill="#fc7e00"/><path d="m401.667969 219.335938c-7.144531 0-13.636719-4.859376-15.410157-12.109376-2.085937-8.515624 3.128907-17.113281 11.648438-19.199218l94.433594-23.117188c8.511718-2.082031 17.117187 3.128906 19.199218 11.648438 2.085938 8.519531-3.128906 17.113281-11.648437 19.199218l-94.433594 23.117188c-1.265625.3125-2.535156.460938-3.789062.460938zm0 0" fill="#fc7e00"/></svg>