<svg xmlns="http://www.w3.org/2000/svg" viewBox="0 0 95.05 78"><defs><style>.cls-1{fill:#f55;}.cls-2{fill:#f72b2b;}.cls-3{fill:#7df2fa;}</style></defs><title>heart</title><g id="Layer_2" data-name="Layer 2"><g id="Layer_1-2" data-name="Layer 1"><path class="cls-1" d="M88.07,22.56A22,22,0,0,0,66.57,0a21.73,21.73,0,0,0-19,10.83A21.73,21.73,0,0,0,28.48,0,22,22,0,0,0,7,22.56c.64,27.13,33.09,50.72,39.46,55.1a1.91,1.91,0,0,0,2.16,0C55,73.28,87.43,49.69,88.07,22.56Z"/><path class="cls-2" d="M88.08,21.75c0,27.46-33,51.48-39.47,55.91a1.91,1.91,0,0,1-2.17,0c-1.59-1.09-4.79-3.37-8.72-6.61,6.48-4.45,39.46-28.46,39.46-55.9A21.65,21.65,0,0,0,71.63.65,21.76,21.76,0,0,1,88.08,21.75Z"/><path class="cls-3" d="M47.25,61.57a2.45,2.45,0,0,1-2.41-2l-6-31.83L32.48,42.89A2.45,2.45,0,0,1,28,43l-1.7-3.39H2.45a2.45,2.45,0,0,1,0-4.91H27.83A2.45,2.45,0,0,1,30,36.09l7.48-17.76a2.45,2.45,0,0,1,4.67.5l4.94,26.24,2-12.28a2.45,2.45,0,0,1,2.42-2.05h8a2.45,2.45,0,0,1,2.06,1.11l3.76,5.77,1.62-2a2.45,2.45,0,0,1,1.9-.9H92.6a2.45,2.45,0,0,1,0,4.91H70.07l-3,3.66a2.45,2.45,0,0,1-4-.22l-4.86-7.46h-4.6l-4,23.88a2.45,2.45,0,0,1-2.39,2.05Z"/></g></g></svg>