<svg xmlns="http://www.w3.org/2000/svg" viewBox="0 0 153 78.46"><defs><style>.cls-1{fill:#ffc642;}.cls-2{fill:#71c4e8;}</style></defs><title>logo</title><g id="Layer_2" data-name="Layer 2"><g id="Layer_1-2" data-name="Layer 1"><path class="cls-1" d="M98.11,47.61l4.68-1-.19-3.71-4.6,1,0-3.7-2.53.56A13.69,13.69,0,0,1,93.11,45l-6.59,1.46-.08-2.1c-.21-3.16.84-4.61,2.74-5a7.09,7.09,0,0,1,3.28.18l1-3.3a8.45,8.45,0,0,0-5-.39C83.58,36.87,82,40.26,82.19,45l.13,2.55L79.8,49.14l.08,2.51,2.61-.58,1,18.52c.16,3.13-.62,4.61-2.53,5a8.18,8.18,0,0,1-2.83.13l-.37,3.51a10.11,10.11,0,0,0,4.35-.11c4.31-1,6-4.3,5.69-9l-1.06-19,7.12-1.58.55,12.26a13.36,13.36,0,0,0,.23,1.76c.45,2.2,1.64,3.57,4.2,3s5.08-2.71,7.07-5L104,58.32c-1,1.13-2.65,2.53-3.72,2.77s-1.36-.1-1.52-.88a11.33,11.33,0,0,1-.2-1.81l-.47-10.78Zm22.11,5.94c-1.86,2.58-3.41,4.1-5.23,4.5-2,.45-2.77-1.06-3.21-3.22-.11-.56-.15-1-.21-1.44,5.37-1.91,10.67-4.81,9.54-10.34-.49-2.42-2.51-4.23-6-3.45-6.63,1.47-9.13,9.39-7.67,16.52.77,3.76,3,6.89,7.1,6,3.31-.74,5.77-3.13,8.07-6.71l-2.36-1.82Zm-9-3.06c-.11-2.46.68-6.66,3.62-7.31a1.74,1.74,0,0,1,2.37,1.42c.45,2.2-1.41,4.56-6,5.89ZM137.1,49c0,2.48-.06,3.94,0,4.69.13,1.06,1.49,2.42,2.24,2.94l3.14-2.46c-1.15-1.19-1.53-2-1.68-4.64l-1.21-24.67-4.39,1,.51,9.73a8.43,8.43,0,0,0-2.92.11c-6.71,1.49-9.68,9.24-7.85,18.23.76,3.72,2.72,5.27,5.25,4.71,3.77-.84,5.49-4.51,6.57-9.63l.31,0Zm-1.18-9c-.09,5.71-2.12,13.84-4.89,14.46-1.2.27-1.68-1-2-2.76-1.14-5.62.47-12.16,4.24-13a7.06,7.06,0,0,1,2.72-.06l0,1.36Z"/><path class="cls-1" d="M16,47.83l13.5-2.94-.22-4.29-9,2L19,17.93l-4.51,1L16,47.83ZM24.65,37l4.42-.82-.54-12.47-4.18.93L24.65,37ZM36.46,51.61a15.11,15.11,0,0,0,5.93-.23c5.72-1.27,7.25-5.4,7-10.91l-.68-16.11A40.81,40.81,0,0,1,49,19.88a21.42,21.42,0,0,0-7.15.41c-5.47,1.21-10.67,7.11-8.49,17.83.7,3.41,2.55,5.31,5.33,4.69,3.48-.77,5.23-3.87,6.6-9.05h.26L45.24,42c-.13,3.6-1.26,5.52-3.83,6.09a13.6,13.6,0,0,1-4.7.09l-.26,3.4Zm7.87-26.82c0,5.88-2.46,13.24-4.94,13.79-1.2.27-1.73-.84-2-2.26C36,29.57,38.49,24.19,41.72,23.47a8.54,8.54,0,0,1,2.62-.13v1.45ZM53.9,39.32l4.27-.95-.26-4.87c-.31-6,2.8-13.23,4.83-13.67.7-.16,1.11.16,1.35,1.33a15.09,15.09,0,0,1,.21,1.89l.61,13.82,4.18-.93-.59-14.59a24.79,24.79,0,0,0-.35-3.22c-.48-2.38-1.9-3.37-4.09-2.89-2.4.53-4.82,2.06-6.84,8.7L57,23.86,56.62,7.59l-4.18.93,1.47,30.8Zm20.18-9.67a13.38,13.38,0,0,0,.23,1.76c.45,2.2,1.64,3.57,4.2,3s5.08-2.71,7.07-5l-1.92-2.19c-1,1.13-2.52,2.5-3.68,2.76s-1.4-.1-1.56-.87a11.39,11.39,0,0,1-.2-1.81l-.46-10.78,4.68-1-.19-3.71-4.6,1,0-3.7-2.53.56a12.19,12.19,0,0,1-4,5.76l.11,2.46,2.32-.51.52,12.35Zm13.58-5.41c.13,2.32.19,3.93.3,4.68a5.47,5.47,0,0,0,2.26,3l3.59-2.56a4.77,4.77,0,0,1-1.52-2.55,16.82,16.82,0,0,1-.22-2.16L90.86,0,86.51,1l1.15,23.28ZM97.92,37.55a17.67,17.67,0,0,0,7.2-.15c4.85-1.08,7.58-4.44,7.25-11.18l-1.06-21L107,6.21l.22,4.92c.26,6-2.66,13.1-4.73,13.56-1,.21-1.33-.16-1.5-1a19.41,19.41,0,0,1-.15-2.23l-.6-13.78-4.18.93.58,14.55A27.06,27.06,0,0,0,97,26.46c.48,2.38,1.93,3.32,4,2.86,2.44-.54,5.09-2.21,7-9l.19.09,0,7.36c0,3.84-1.23,5.65-4,6.27a17.31,17.31,0,0,1-6,.11l-.26,3.4Z"/><polygon class="cls-2" points="9.52 32.41 0 30.93 0.79 25.41 10.31 26.89 9.52 32.41 9.52 32.41"/><polygon class="cls-2" points="144.17 40.49 153 36.48 150.87 31.36 142.04 35.37 144.17 40.49 144.17 40.49"/><polygon class="cls-2" points="11.54 40.2 6.47 43.07 3.91 38.17 8.99 35.29 11.54 40.2 11.54 40.2"/><polygon class="cls-2" points="144.15 48.55 149.77 49.96 151.01 44.53 145.4 43.13 144.15 48.55 144.15 48.55"/><path class="cls-1" d="M64.15,72.64l13.5-2.94-.22-4.29-9,2L67.2,42.74l-4.51,1,1.47,28.9Zm8.66-10.81,4.6-1.09-.73-12.2-4.18.93.3,12.36Z"/><polygon class="cls-1" points="22.33 18.03 27.41 20.9 29.96 16 24.89 13.12 22.33 18.03 22.33 18.03"/><polygon class="cls-1" points="70.39 42.37 75.47 45.24 78.02 40.34 72.94 37.46 70.39 42.37 70.39 42.37"/></g></g></svg>