<svg xmlns="http://www.w3.org/2000/svg" viewBox="0 0 73.83 84"><defs><style>.cls-1{fill:#b3ffff;}.cls-2{fill:#ffc429;}.cls-3{fill:#ff990f;}</style></defs><title>mind</title><g id="Layer_2" data-name="Layer 2"><g id="Layer_1-2" data-name="Layer 1"><path class="cls-1" d="M22.15,39.37c4.21,0,7.79-2.33,9.84-4,2.05,1.69,5.64,4,9.84,4,6.46,0,11.47-5.51,11.68-5.74a2.46,2.46,0,0,0,0-3.28A20.39,20.39,0,0,0,47,25.76a20.47,20.47,0,0,0,1.32-7.82A2.46,2.46,0,0,0,46,15.61a20.45,20.45,0,0,0-7.82,1.32,20.4,20.4,0,0,0-4.59-6.46,2.46,2.46,0,0,0-3.28,0,20.39,20.39,0,0,0-4.59,6.46,20.45,20.45,0,0,0-7.82-1.32,2.46,2.46,0,0,0-2.32,2.32,20.44,20.44,0,0,0,1.32,7.82,20.4,20.4,0,0,0-6.46,4.59,2.46,2.46,0,0,0,0,3.28C10.68,33.87,15.68,39.37,22.15,39.37ZM39.36,21.8a13.27,13.27,0,0,1,3.94-1.13,13.32,13.32,0,0,1-1.12,3.94,11.73,11.73,0,0,0-3.15.33A11.76,11.76,0,0,0,39.36,21.8Zm2.47,7.73A10.71,10.71,0,0,1,48,32a10.74,10.74,0,0,1-6.16,2.46A10.71,10.71,0,0,1,35.67,32,10.74,10.74,0,0,1,41.83,29.53ZM32,16a10.72,10.72,0,0,1,2.46,6.16A10.72,10.72,0,0,1,32,28.31a10.72,10.72,0,0,1-2.46-6.16A10.72,10.72,0,0,1,32,16ZM24.62,21.8c0,.12,0,.23,0,.35a12.08,12.08,0,0,0,.34,2.8,12.13,12.13,0,0,0-2.8-.34H21.8a13.27,13.27,0,0,1-1.13-3.94A13.28,13.28,0,0,1,24.62,21.8Zm-2.47,7.73A10.71,10.71,0,0,1,28.31,32a10.74,10.74,0,0,1-6.16,2.46A10.71,10.71,0,0,1,16,32,10.74,10.74,0,0,1,22.15,29.53Z"/><path class="cls-2" d="M34.45,41.84A2.46,2.46,0,1,1,32,39.37,2.46,2.46,0,0,1,34.45,41.84Z"/><path class="cls-3" d="M14.77,81.53h0A2.46,2.46,0,0,0,17.23,84H41.84a2.46,2.46,0,0,0,2.46-2.46,7.39,7.39,0,0,1,7.38-7.38h9.84A2.46,2.46,0,0,0,64,71.7V59.06a7.39,7.39,0,0,1,7.39-7.38,2.46,2.46,0,0,0,2-3.83L63.65,33.32c0-3.41,0-5.28,0-5.28a2.49,2.49,0,0,0,0-.32A32,32,0,1,0,5.32,49.67,58.2,58.2,0,0,1,14.77,81.53ZM35.17,5.1A27.15,27.15,0,0,1,58.73,28.2c0,.57,0,2.6,0,5.87a2.45,2.45,0,0,0,.41,1.37l8.08,12a12.35,12.35,0,0,0-7.92,9.13h-.67a14.25,14.25,0,0,1-10.14-4.2A2.46,2.46,0,0,0,45,55.88a19.14,19.14,0,0,0,13.62,5.64h.43v7.71H51.68a12.33,12.33,0,0,0-12.06,9.84h-20A63.07,63.07,0,0,0,9.42,46.94,27.08,27.08,0,0,1,35.17,5.1Z"/></g></g></svg>