<svg xmlns="http://www.w3.org/2000/svg" viewBox="0 0 89.25 89.25"><defs><style>.cls-1{fill:#c6e2e7;}.cls-2{fill:#8ebac5;}.cls-3{fill:#deecf1;}.cls-4{fill:#a8d3d8;}.cls-5{fill:#7df2fa;}.cls-6{fill:#00357c;}</style></defs><title>shaker</title><g id="Layer_2" data-name="Layer 2"><g id="Layer_1-2" data-name="Layer 1"><path class="cls-1" d="M30.89,85.29c-1.63,1.33-2.59,2.14-2.59,2.14A7.8,7.8,0,0,1,17.76,87L2.3,71.5A7.8,7.8,0,0,1,1.82,61S2.63,60,4,58.37C4.89,57.3,9.73,59.63,11,58L31.22,78.23C29.63,79.52,32,84.37,30.89,85.29Z"/><path class="cls-2" d="M30.89,85.29c-1.63,1.33-2.59,2.14-2.59,2.14A7.8,7.8,0,0,1,17.76,87L10,79.23,21.12,68.13l10.1,10.1C29.63,79.52,32,84.37,30.89,85.29Z"/><path class="cls-3" d="M58.37,62.47C50.82,68.75,32,84.37,30.89,85.29L4,58.37C4.89,57.3,20.5,38.43,26.79,30.89c1.22-1.44,6.06.89,7.06-.33L58.7,55.41C57.52,56.44,59.85,61.29,58.37,62.47Z"/><path class="cls-4" d="M58.37,62.47C50.82,68.75,32,84.37,30.89,85.29L17.43,71.83,46.27,43,58.7,55.41C57.52,56.44,59.85,61.29,58.37,62.47Z"/><path class="cls-1" d="M66.43,55.74c-1,.85-6.58,5.55-8.06,6.73L26.79,30.89c1.22-1.44,5.88-7.06,6.73-8.06l7.21-.18L66.61,48.53Z"/><path class="cls-2" d="M66.43,55.74c-1,.85-6.58,5.55-8.06,6.73L42.58,46.68,53.67,35.58,66.61,48.53Z"/><path class="cls-1" d="M87,9.7l-7.4-7.4a7.83,7.83,0,0,0-11.09,0L57.37,13.4a2.59,2.59,0,0,0,0,3.7L72.16,31.89a2.59,2.59,0,0,0,3.7,0L87,20.79A7.83,7.83,0,0,0,87,9.7Z"/><path class="cls-5" d="M2.44,25.9A36.66,36.66,0,0,1,25.5,2.84a2.62,2.62,0,1,1,1.65,5A31.39,31.39,0,0,0,7.4,27.56a2.62,2.62,0,1,1-5-1.65Z"/><path class="cls-5" d="M12.36,29.21A26.12,26.12,0,0,1,28.81,12.76a2.62,2.62,0,1,1,1.65,5A20.87,20.87,0,0,0,17.32,30.86a2.62,2.62,0,1,1-5-1.65Z"/><path class="cls-6" d="M58.31,83.43A2.61,2.61,0,0,1,60,80.12,31.39,31.39,0,0,0,79.72,60.37a2.62,2.62,0,0,1,5,1.65A36.66,36.66,0,0,1,61.62,85.09,2.62,2.62,0,0,1,58.31,83.43Z"/><path class="cls-6" d="M55,73.51a2.61,2.61,0,0,1,1.65-3.31A20.87,20.87,0,0,0,69.8,57.06a2.62,2.62,0,0,1,5,1.65A26.12,26.12,0,0,1,58.31,75.16,2.62,2.62,0,0,1,55,73.51Z"/><path class="cls-2" d="M72.16,31.89l-7.4-7.4L83.25,6,87,9.7a7.83,7.83,0,0,1,0,11.09L75.86,31.89A2.59,2.59,0,0,1,72.16,31.89Z"/><path class="cls-3" d="M74.34,48.19l-5.88,5.88-2,1.66L33.52,22.83c1-1.22,1.59-2,1.59-2l.07-.07,5.88-5.88a7.93,7.93,0,0,1,5.55-2.29l12.61-1.07L77.71,30,76.64,42.65A8,8,0,0,1,74.34,48.19Z"/><path class="cls-4" d="M74.34,48.19l-5.88,5.88-2,1.66L50,39.28,68.46,20.79,77.71,30,76.64,42.65A8,8,0,0,1,74.34,48.19Z"/></g></g></svg>